<svg version="1.1" xmlns="http://www.w3.org/2000/svg" xmlns:xlink="http://www.w3.org/1999/xlink" x="0px" y="0px" width="38px" height="38px" viewBox="0 0 38 38" xml:space="preserve">
                    <path style="fill:#red;" d="M9.278,20.278h16.249l-5.872,5.59c-0.511,0.487-0.531,1.295-0.045,1.807
	                    c0.487,0.511,1.296,0.531,1.807,0.045l8.187-7.794C29.856,19.684,30,19.35,30,19c0-0.349-0.144-0.685-0.397-0.925l-8.187-7.794
	                    c-0.247-0.236-0.564-0.353-0.881-0.353c-0.337,0-0.674,0.133-0.926,0.397c-0.487,0.511-0.467,1.32,0.045,1.806l5.873,5.591H9.278
	                    C8.572,17.722,8,18.295,8,19C8,19.706,8.572,20.278,9.278,20.278z"></path>
                    <path style="fill:#red;" d="M19,36.5C9.35,36.5,1.5,28.65,1.5,19S9.35,1.5,19,1.5S36.5,9.35,36.5,19S28.65,36.5,19,36.5 M19,38
	                    c10.493,0,19-8.507,19-19S29.493,0,19,0S0,8.507,0,19S8.507,38,19,38L19,38z"></path>
                    </svg>