<svg version="1.1" xmlns="http://www.w3.org/2000/svg" xmlns:xlink="http://www.w3.org/1999/xlink" x="0px" y="0px" width="38px" height="38px" viewBox="0 0 38 38" xml:space="preserve">
                    <path style="fill:#red;" d="M28.722,17.722H12.473l5.872-5.59c0.511-0.487,0.531-1.295,0.045-1.807
	                    c-0.487-0.511-1.296-0.531-1.807-0.045l-8.187,7.794C8.144,18.316,8,18.65,8,19c0,0.349,0.144,0.685,0.397,0.925l8.187,7.794
	                    c0.247,0.236,0.564,0.353,0.881,0.353c0.337,0,0.674-0.133,0.926-0.397c0.487-0.511,0.467-1.32-0.045-1.806l-5.873-5.591h16.249
	                    C29.428,20.278,30,19.705,30,19C30,18.294,29.428,17.722,28.722,17.722z"></path>
                    <path style="fill:#red;" d="M19,1.5c9.65,0,17.5,7.85,17.5,17.5S28.65,36.5,19,36.5S1.5,28.65,1.5,19S9.35,1.5,19,1.5 M19,0
	                    C8.507,0,0,8.507,0,19s8.507,19,19,19s19-8.507,19-19S29.493,0,19,0L19,0z"></path>
                    </svg>